<svg width="208" height="40" viewBox="0 0 208 40" fill="none" xmlns="http://www.w3.org/2000/svg">
<path d="M8.69565 0H0V8.69567H8.69565V0Z" fill="#3208F5"/>
<path d="M40 0H31.3043V8.69567H40V0Z" fill="#3208F5"/>
<path d="M8.65378 13.0936L0 13.6956V40H8.69565V28.4008C15.4131 32.7459 24.5869 32.7459 31.3043 28.4008V40H40V13.6956L31.3462 13.0936C29.5063 26.254 10.4937 26.254 8.65378 13.0936Z" fill="#3208F5"/>
<path d="M55.547 40C63.9829 40 69.094 34.4472 69.094 26.1796C69.094 17.912 63.9829 12.3592 55.547 12.3592C47.136 12.3592 42 17.912 42 26.1796C42 34.4472 47.136 40 55.547 40ZM50.5351 26.1302C50.5103 21.6633 52.2967 18.5537 55.5966 18.529C58.7973 18.5537 60.5837 21.6633 60.5589 26.1302C60.5837 30.6219 58.7973 33.7068 55.5966 33.7315C52.2967 33.7068 50.5103 30.6219 50.5351 26.1302Z" fill="#3208F5"/>
<path d="M71.3787 39.5064H79.7649V23.6129C79.7401 20.8735 81.3776 19.1213 83.6851 19.1213C85.9429 19.1213 87.4564 20.7008 87.4564 23.2181V39.5064H95.4953V23.4155C95.4953 20.8242 96.9592 19.1213 99.3659 19.1213C101.624 19.1213 103.212 20.5774 103.187 23.3168V39.5064H111.573V21.4411C111.573 15.7649 108.05 12.3592 102.988 12.3592C99.0185 12.3592 95.8923 14.4075 94.8502 17.5912H94.5525C93.8329 14.3829 90.9796 12.3592 87.2579 12.3592C83.561 12.3592 80.7574 14.3335 79.616 17.5912H79.3183V12.7047H71.3787V39.5064Z" fill="#3208F5"/>
<path d="M127.355 40C134.327 40 138.942 36.6436 139.959 31.4116H132.169C131.499 32.9911 129.787 33.9782 127.504 33.9782C124.105 33.9782 122.021 31.7324 121.996 28.302V28.1539H140.059V26.0315C140.059 17.1469 134.625 12.3592 127.057 12.3592C118.969 12.3592 113.758 17.912 113.758 26.2289C113.758 34.768 118.919 40 127.355 40ZM121.996 23.2674C122.12 20.5033 124.303 18.3809 127.256 18.3809C130.134 18.3809 132.218 20.4046 132.268 23.2674H121.996Z" fill="#3208F5"/>
<path d="M157.478 12.7047H152.367V11.4213C152.342 9.37296 153.583 8.58322 155.692 8.55854C156.064 8.58322 156.833 8.6079 157.974 8.70661V2.53678C156.535 2.26531 155.071 2.09255 153.161 2.09255C147.554 2.09255 143.981 5.15279 143.981 11.2239V12.7047H140.309V18.8251H143.981V39.5064H152.367V18.8251H157.478V12.7047Z" fill="#3208F5"/>
<path d="M167.901 3.77075H159.515V39.5064H167.901V3.77075Z" fill="#3208F5"/>
<path d="M171.228 39.5064H179.614V12.7047H171.228V39.5064ZM171.128 5.4983C171.128 7.71944 173.064 9.49635 175.445 9.49635C177.852 9.49635 179.787 7.71944 179.812 5.4983C179.787 3.27716 177.852 1.47557 175.445 1.50025C173.064 1.47557 171.128 3.27716 171.128 5.4983Z" fill="#3208F5"/>
<path d="M190.037 12.7047H181.551L189.044 26.0809L181.154 39.5064H189.689L194.602 30.5231L199.614 39.5064H208L200.16 26.0809L207.752 12.7047H199.266L194.602 21.6386L190.037 12.7047Z" fill="#3208F5"/>
</svg>
