<svg width="416" height="80" viewBox="0 0 416 80" fill="none" xmlns="http://www.w3.org/2000/svg">
<path d="M17.3913 0H0V17.3913H17.3913V0Z" fill="#3208F5"/>
<path d="M80 0H62.6087V17.3913H80V0Z" fill="#3208F5"/>
<path d="M17.3076 26.1872L0 27.3912V80H17.3913V56.8015C30.8262 65.4918 49.1738 65.4918 62.6087 56.8015V80H80V27.3912L62.6924 26.1872C59.0126 52.5081 20.9874 52.5081 17.3076 26.1872Z" fill="#3208F5"/>
<path d="M111.094 80C127.966 80 138.188 68.8943 138.188 52.3592C138.188 35.824 127.966 24.7183 111.094 24.7183C94.2719 24.7183 84 35.824 84 52.3592C84 68.8943 94.2719 80 111.094 80ZM101.07 52.2604C101.021 43.3265 104.593 37.1073 111.193 37.058C117.595 37.1073 121.167 43.3265 121.118 52.2604C121.167 61.2437 117.595 67.4135 111.193 67.4629C104.593 67.4135 101.021 61.2437 101.07 52.2604Z" fill="#3208F5"/>
<path d="M142.757 79.0128H159.53V47.2259C159.48 41.747 162.755 38.2426 167.37 38.2426C171.886 38.2426 174.913 41.4015 174.913 46.4361V79.0128H190.991V46.831C190.991 41.6483 193.918 38.2426 198.732 38.2426C203.247 38.2426 206.423 41.1547 206.374 46.6336V79.0128H223.146V42.8823C223.146 31.5298 216.1 24.7183 205.977 24.7183C198.037 24.7183 191.785 28.8151 189.7 35.1823H189.105C187.666 28.7657 181.959 24.7183 174.516 24.7183C167.122 24.7183 161.515 28.667 159.232 35.1823H158.637V25.4093H142.757V79.0128Z" fill="#3208F5"/>
<path d="M254.71 80C268.654 80 277.884 73.2872 279.919 62.8232H264.337C262.997 65.9821 259.573 67.9565 255.008 67.9565C248.21 67.9565 244.041 63.4649 243.992 56.604V56.3078H280.117V52.063C280.117 34.2939 269.25 24.7183 254.115 24.7183C237.938 24.7183 227.517 35.824 227.517 52.4579C227.517 69.536 237.838 80 254.71 80ZM243.992 46.5348C244.24 41.0067 248.607 36.7618 254.512 36.7618C260.268 36.7618 264.436 40.8092 264.535 46.5348H243.992Z" fill="#3208F5"/>
<path d="M314.956 25.4093H304.734V22.8427C304.684 18.7459 307.165 17.1664 311.383 17.1171C312.128 17.1664 313.666 17.2158 315.949 17.4132V5.07356C313.071 4.53062 310.143 4.18511 306.322 4.18511C295.107 4.18511 287.961 10.3056 287.961 22.4478V25.4093H280.617V37.6503H287.961V79.0128H304.734V37.6503H314.956V25.4093Z" fill="#3208F5"/>
<path d="M335.802 7.5415H319.029V79.0128H335.802V7.5415Z" fill="#3208F5"/>
<path d="M342.455 79.0128H359.228V25.4093H342.455V79.0128ZM342.257 10.9966C342.257 15.4389 346.127 18.9927 350.891 18.9927C355.704 18.9927 359.575 15.4389 359.625 10.9966C359.575 6.55432 355.704 2.95114 350.891 3.0005C346.127 2.95114 342.257 6.55432 342.257 10.9966Z" fill="#3208F5"/>
<path d="M380.073 25.4093H363.102L378.088 52.1617L362.308 79.0128H379.378L389.204 61.0463L399.228 79.0128H416L400.319 52.1617L415.504 25.4093H398.533L389.204 43.2772L380.073 25.4093Z" fill="#3208F5"/>
</svg>
