<svg width="84" height="16" viewBox="0 0 84 16" fill="none" xmlns="http://www.w3.org/2000/svg">
<path d="M3.47826 0H0V3.47827H3.47826V0Z" fill="#3208F5"/>
<path d="M16 0H12.5217V3.47827H16V0Z" fill="#3208F5"/>
<path d="M3.46151 5.23744L0 5.47824V16H3.47826V11.3603C6.16523 13.0984 9.83477 13.0984 12.5217 11.3603V16H16V5.47824L12.5385 5.23744C11.8025 10.5016 4.19747 10.5016 3.46151 5.23744Z" fill="#3208F5"/>
<path d="M22.2188 16C25.5932 16 27.6376 13.7789 27.6376 10.4718C27.6376 7.1648 25.5932 4.94366 22.2188 4.94366C18.8544 4.94366 16.8 7.1648 16.8 10.4718C16.8 13.7789 18.8544 16 22.2188 16ZM20.214 10.4521C20.2041 8.6653 20.9187 7.42147 22.2387 7.41159C23.5189 7.42147 24.2335 8.6653 24.2236 10.4521C24.2335 12.2487 23.5189 13.4827 22.2387 13.4926C20.9187 13.4827 20.2041 12.2487 20.214 10.4521Z" fill="#3208F5"/>
<path d="M28.5515 15.8026H31.906V9.44517C31.896 8.34941 32.5511 7.64852 33.474 7.64852C34.3772 7.64852 34.9826 8.28031 34.9826 9.28722V15.8026H38.1981V9.3662C38.1981 8.32967 38.7837 7.64852 39.7464 7.64852C40.6495 7.64852 41.2847 8.23095 41.2747 9.32671V15.8026H44.6292V8.57646C44.6292 6.30596 43.2199 4.94366 41.1953 4.94366C39.6074 4.94366 38.3569 5.76302 37.9401 7.03647H37.821C37.5332 5.75314 36.3919 4.94366 34.9032 4.94366C33.4244 4.94366 32.3029 5.7334 31.8464 7.03647H31.7273V5.08187H28.5515V15.8026Z" fill="#3208F5"/>
<path d="M50.942 16C53.7308 16 55.5768 14.6574 55.9837 12.5646H52.8674C52.5994 13.1964 51.9146 13.5913 51.0016 13.5913C49.6419 13.5913 48.8083 12.693 48.7983 11.3208V11.2616H56.0234V10.4126C56.0234 6.85878 53.8499 4.94366 50.8229 4.94366C47.5875 4.94366 45.5034 7.1648 45.5034 10.4916C45.5034 13.9072 47.5677 16 50.942 16ZM48.7983 9.30697C48.848 8.20133 49.7213 7.35236 50.9023 7.35236C52.0536 7.35236 52.8873 8.16185 52.9071 9.30697H48.7983Z" fill="#3208F5"/>
<path d="M62.9912 5.08187H60.9468V4.56854C60.9369 3.74918 61.4331 3.43329 62.2767 3.42342C62.4255 3.43329 62.7332 3.44316 63.1897 3.48265V1.01471C62.6141 0.906124 62.0286 0.837022 61.2644 0.837022C59.0214 0.837022 57.5923 2.06112 57.5923 4.48956V5.08187H56.1234V7.53006H57.5923V15.8026H60.9468V7.53006H62.9912V5.08187Z" fill="#3208F5"/>
<path d="M67.1603 1.5083H63.8058V15.8026H67.1603V1.5083Z" fill="#3208F5"/>
<path d="M68.491 15.8026H71.8455V5.08187H68.491V15.8026ZM68.4513 2.19932C68.4513 3.08778 69.2254 3.79854 70.1782 3.79854C71.1409 3.79854 71.915 3.08778 71.9249 2.19932C71.915 1.31086 71.1409 0.590228 70.1782 0.6001C69.2254 0.590228 68.4513 1.31086 68.4513 2.19932Z" fill="#3208F5"/>
<path d="M76.0146 5.08187H72.6204L75.6177 10.4323L72.4616 15.8026H75.8757L77.8408 12.2093L79.8455 15.8026H83.2L80.0639 10.4323L83.1008 5.08187H79.7066L77.8408 8.65543L76.0146 5.08187Z" fill="#3208F5"/>
</svg>
