<svg width="250" height="48" viewBox="0 0 250 48" fill="none" xmlns="http://www.w3.org/2000/svg">
<path d="M10.4348 0H0V10.4348H10.4348V0Z" fill="#3208F5"/>
<path d="M48 0H37.5652V10.4348H48V0Z" fill="#3208F5"/>
<path d="M10.3845 15.7123L0 16.4347V48H10.4348V34.0809C18.4957 39.2951 29.5043 39.2951 37.5652 34.0809V48H48V16.4347L37.6155 15.7123C35.4076 31.5048 12.5924 31.5049 10.3845 15.7123Z" fill="#3208F5"/>
<path d="M66.6564 48C76.7795 48 82.9128 41.3366 82.9128 31.4155C82.9128 21.4944 76.7795 14.831 66.6564 14.831C56.5631 14.831 50.4 21.4944 50.4 31.4155C50.4 41.3366 56.5631 48 66.6564 48ZM60.6421 31.3563C60.6124 25.9959 62.7561 22.2644 66.716 22.2348C70.5568 22.2644 72.7005 25.9959 72.6707 31.3563C72.7005 36.7462 70.5568 40.4481 66.716 40.4777C62.7561 40.4481 60.6124 36.7462 60.6421 31.3563Z" fill="#3208F5"/>
<path d="M85.6544 47.4077H95.7179V28.3355C95.6881 25.0482 97.6532 22.9455 100.422 22.9455C103.132 22.9455 104.948 24.8409 104.948 27.8617V47.4077H114.594V28.0986C114.594 24.989 116.351 22.9455 119.239 22.9455C121.948 22.9455 123.854 24.6928 123.824 27.9801V47.4077H133.888V25.7294C133.888 18.9179 129.66 14.831 123.586 14.831C118.822 14.831 115.071 17.289 113.82 21.1094H113.463C112.6 17.2594 109.176 14.831 104.71 14.831C100.273 14.831 96.9088 17.2002 95.5392 21.1094H95.182V15.2456H85.6544V47.4077Z" fill="#3208F5"/>
<path d="M152.826 48C161.193 48 166.73 43.9723 167.951 37.6939H158.602C157.798 39.5893 155.744 40.7739 153.005 40.7739C148.926 40.7739 146.425 38.0789 146.395 33.9624V33.7847H168.07V31.2378C168.07 20.5763 161.55 14.831 152.469 14.831C142.763 14.831 136.51 21.4944 136.51 31.4747C136.51 41.7216 142.703 48 152.826 48ZM146.395 27.9209C146.544 24.604 149.164 22.0571 152.707 22.0571C156.161 22.0571 158.662 24.4855 158.721 27.9209H146.395Z" fill="#3208F5"/>
<path d="M188.974 15.2456H182.84V13.7056C182.811 11.2475 184.299 10.2999 186.83 10.2702C187.277 10.2999 188.2 10.3295 189.569 10.4479V3.04414C187.842 2.71837 186.086 2.51107 183.793 2.51107C177.064 2.51107 172.777 6.18335 172.777 13.4687V15.2456H168.37V22.5902H172.777V47.4077H182.84V22.5902H188.974V15.2456Z" fill="#3208F5"/>
<path d="M201.481 4.5249H191.418V47.4077H201.481V4.5249Z" fill="#3208F5"/>
<path d="M205.473 47.4077H215.537V15.2456H205.473V47.4077ZM205.354 6.59796C205.354 9.26333 207.676 11.3956 210.535 11.3956C213.423 11.3956 215.745 9.26333 215.775 6.59796C215.745 3.93259 213.423 1.77069 210.535 1.8003C207.676 1.77069 205.354 3.93259 205.354 6.59796Z" fill="#3208F5"/>
<path d="M228.044 15.2456H217.861L226.853 31.297L217.385 47.4077H227.627L233.522 36.6278L239.537 47.4077H249.6L240.192 31.297L249.302 15.2456H239.12L233.522 25.9663L228.044 15.2456Z" fill="#3208F5"/>
</svg>
