<svg width="292" height="56" viewBox="0 0 292 56" fill="none" xmlns="http://www.w3.org/2000/svg">
<path d="M12.1739 0H0V12.1739H12.1739V0Z" fill="#3208F5"/>
<path d="M56 0H43.8261V12.1739H56V0Z" fill="#3208F5"/>
<path d="M12.1153 18.331L0 19.1738V56H12.1739V39.7611C21.5783 45.8442 34.4217 45.8442 43.8261 39.7611V56H56V19.1738L43.8847 18.331C41.3089 36.7557 14.6911 36.7557 12.1153 18.331Z" fill="#3208F5"/>
<path d="M77.7658 56C89.576 56 96.7316 48.226 96.7316 36.6514C96.7316 25.0768 89.576 17.3028 77.7658 17.3028C65.9903 17.3028 58.8 25.0768 58.8 36.6514C58.8 48.226 65.9903 56 77.7658 56ZM70.7492 36.5823C70.7144 30.3286 73.2154 25.9751 77.8353 25.9406C82.3162 25.9751 84.8172 30.3286 84.7825 36.5823C84.8172 42.8706 82.3162 47.1895 77.8353 47.224C73.2154 47.1895 70.7144 42.8706 70.7492 36.5823Z" fill="#3208F5"/>
<path d="M99.9301 55.309H111.671V33.0581C111.636 29.2229 113.929 26.7698 117.159 26.7698C120.32 26.7698 122.439 28.9811 122.439 32.5053V55.309H133.693V32.7817C133.693 29.1538 135.743 26.7698 139.112 26.7698C142.273 26.7698 144.496 28.8083 144.462 32.6435V55.309H156.202V30.0176C156.202 22.0709 151.27 17.3028 144.184 17.3028C138.626 17.3028 134.249 20.1706 132.79 24.6276H132.373C131.366 20.136 127.372 17.3028 122.161 17.3028C116.985 17.3028 113.06 20.0669 111.462 24.6276H111.046V17.7865H99.9301V55.309Z" fill="#3208F5"/>
<path d="M178.297 56C188.058 56 194.519 51.3011 195.943 43.9762H185.036C184.098 46.1875 181.701 47.5695 178.506 47.5695C173.747 47.5695 170.829 44.4254 170.794 39.6228V39.4155H196.082V36.4441C196.082 24.0057 188.475 17.3028 177.88 17.3028C166.556 17.3028 159.262 25.0768 159.262 36.7205C159.262 48.6752 166.487 56 178.297 56ZM170.794 32.5744C170.968 28.7047 174.025 25.7333 178.158 25.7333C182.188 25.7333 185.105 28.5665 185.175 32.5744H170.794Z" fill="#3208F5"/>
<path d="M220.469 17.7865H213.314V15.9899C213.279 13.1221 215.016 12.0165 217.968 11.982C218.489 12.0165 219.566 12.0511 221.164 12.1893V3.5515C219.149 3.17143 217.1 2.92958 214.425 2.92958C206.575 2.92958 201.573 7.21391 201.573 15.7135V17.7865H196.432V26.3552H201.573V55.309H213.314V26.3552H220.469V17.7865Z" fill="#3208F5"/>
<path d="M235.061 5.27905H223.32V55.309H235.061V5.27905Z" fill="#3208F5"/>
<path d="M239.719 55.309H251.459V17.7865H239.719V55.309ZM239.58 7.69762C239.58 10.8072 242.289 13.2949 245.624 13.2949C248.993 13.2949 251.702 10.8072 251.737 7.69762C251.702 4.58803 248.993 2.0658 245.624 2.10035C242.289 2.0658 239.58 4.58803 239.58 7.69762Z" fill="#3208F5"/>
<path d="M266.051 17.7865H254.172L264.662 36.5132L253.616 55.309H265.565L272.443 42.7324L279.459 55.309H291.2L280.223 36.5132L290.853 17.7865H278.973L272.443 30.294L266.051 17.7865Z" fill="#3208F5"/>
</svg>
