<svg width="167" height="32" viewBox="0 0 167 32" fill="none" xmlns="http://www.w3.org/2000/svg">
<path d="M6.95652 0H0V6.95653H6.95652V0Z" fill="#3208F5"/>
<path d="M32 0H25.0435V6.95653H32V0Z" fill="#3208F5"/>
<path d="M6.92302 10.4749L0 10.9565V32H6.95652V22.7206C12.3305 26.1967 19.6695 26.1967 25.0435 22.7206V32H32V10.9565L25.077 10.4749C23.6051 21.0032 8.39494 21.0032 6.92302 10.4749Z" fill="#3208F5"/>
<path d="M44.4376 32C51.1863 32 55.2752 27.5577 55.2752 20.9437C55.2752 14.3296 51.1863 9.88732 44.4376 9.88732C37.7088 9.88732 33.6 14.3296 33.6 20.9437C33.6 27.5577 37.7088 32 44.4376 32ZM40.4281 20.9042C40.4082 17.3306 41.8374 14.8429 44.4773 14.8232C47.0378 14.8429 48.467 17.3306 48.4471 20.9042C48.467 24.4975 47.0378 26.9654 44.4773 26.9852C41.8374 26.9654 40.4082 24.4975 40.4281 20.9042Z" fill="#3208F5"/>
<path d="M57.1029 31.6051H63.8119V18.8903C63.7921 16.6988 65.1021 15.297 66.9481 15.297C68.7543 15.297 69.9651 16.5606 69.9651 18.5744V31.6051H76.3963V18.7324C76.3963 16.6593 77.5674 15.297 79.4927 15.297C81.299 15.297 82.5693 16.4619 82.5495 18.6534V31.6051H89.2585V17.1529C89.2585 12.6119 86.4399 9.88732 82.3907 9.88732C79.2148 9.88732 76.7138 11.526 75.8802 14.0729H75.642C75.0664 11.5063 72.7837 9.88732 69.8064 9.88732C66.8488 9.88732 64.6059 11.4668 63.6928 14.0729H63.4546V10.1637H57.1029V31.6051Z" fill="#3208F5"/>
<path d="M101.884 32C107.462 32 111.154 29.3149 111.967 25.1293H105.735C105.199 26.3929 103.829 27.1826 102.003 27.1826C99.2839 27.1826 97.6165 25.3859 97.5967 22.6416V22.5231H112.047V20.8252C112.047 13.7176 107.7 9.88732 101.646 9.88732C95.1751 9.88732 91.0068 14.3296 91.0068 20.9832C91.0068 27.8144 95.1354 32 101.884 32ZM97.5967 18.6139C97.6959 16.4027 99.4426 14.7047 101.805 14.7047C104.107 14.7047 105.775 16.3237 105.814 18.6139H97.5967Z" fill="#3208F5"/>
<path d="M125.982 10.1637H121.894V9.13707C121.874 7.49836 122.866 6.86657 124.553 6.84683C124.851 6.86657 125.466 6.88632 126.379 6.96529V2.02943C125.228 1.81225 124.057 1.67404 122.529 1.67404C118.043 1.67404 115.185 4.12223 115.185 8.97913V10.1637H112.247V15.0601H115.185V31.6051H121.894V15.0601H125.982V10.1637Z" fill="#3208F5"/>
<path d="M134.321 3.0166H127.612V31.6051H134.321V3.0166Z" fill="#3208F5"/>
<path d="M136.982 31.6051H143.691V10.1637H136.982V31.6051ZM136.903 4.39864C136.903 6.17555 138.451 7.59708 140.356 7.59708C142.282 7.59708 143.83 6.17555 143.85 4.39864C143.83 2.62173 142.282 1.18046 140.356 1.2002C138.451 1.18046 136.903 2.62173 136.903 4.39864Z" fill="#3208F5"/>
<path d="M152.029 10.1637H145.241L151.235 20.8647L144.923 31.6051H151.751L155.682 24.4185L159.691 31.6051H166.4L160.128 20.8647L166.202 10.1637H159.413L155.682 17.3109L152.029 10.1637Z" fill="#3208F5"/>
</svg>
