<svg width="125" height="24" viewBox="0 0 125 24" fill="none" xmlns="http://www.w3.org/2000/svg">
<path d="M5.21739 0H0V5.2174H5.21739V0Z" fill="#3208F5"/>
<path d="M24 0H18.7826V5.2174H24V0Z" fill="#3208F5"/>
<path d="M5.19227 7.85616L0 8.21736V24H5.21739V17.0405C9.24785 19.6475 14.7522 19.6475 18.7826 17.0405V24H24V8.21736L18.8077 7.85616C17.7038 15.7524 6.29621 15.7524 5.19227 7.85616Z" fill="#3208F5"/>
<path d="M33.3282 24C38.3897 24 41.4564 20.6683 41.4564 15.7077C41.4564 10.7472 38.3897 7.41549 33.3282 7.41549C28.2816 7.41549 25.2 10.7472 25.2 15.7077C25.2 20.6683 28.2816 24 33.3282 24ZM30.3211 15.6781C30.3062 12.998 31.378 11.1322 33.358 11.1174C35.2784 11.1322 36.3502 12.998 36.3353 15.6781C36.3502 18.3731 35.2784 20.2241 33.358 20.2389C31.378 20.2241 30.3062 18.3731 30.3211 15.6781Z" fill="#3208F5"/>
<path d="M42.8272 23.7038H47.8589V14.1678C47.8441 12.5241 48.8266 11.4728 50.2111 11.4728C51.5658 11.4728 52.4739 12.4205 52.4739 13.9308V23.7038H57.2972V14.0493C57.2972 12.4945 58.1755 11.4728 59.6195 11.4728C60.9742 11.4728 61.927 12.3464 61.9121 13.9901V23.7038H66.9438V12.8647C66.9438 9.45894 64.8299 7.41549 61.793 7.41549C59.4111 7.41549 57.5354 8.64452 56.9101 10.5547H56.7315C56.2998 8.62972 54.5878 7.41549 52.3548 7.41549C50.1366 7.41549 48.4544 8.6001 47.7696 10.5547H47.591V7.6228H42.8272V23.7038Z" fill="#3208F5"/>
<path d="M76.4131 24C80.5963 24 83.3652 21.9862 83.9756 18.847H79.3011C78.8992 19.7946 77.872 20.3869 76.5024 20.3869C74.4629 20.3869 73.2124 19.0395 73.1975 16.9812V16.8924H84.0351V15.6189C84.0351 10.2882 80.7749 7.41549 76.2344 7.41549C71.3813 7.41549 68.2551 10.7472 68.2551 15.7374C68.2551 20.8608 71.3515 24 76.4131 24ZM73.1975 13.9605C73.2719 12.302 74.582 11.0285 76.3535 11.0285C78.0804 11.0285 79.3309 12.2428 79.3606 13.9605H73.1975Z" fill="#3208F5"/>
<path d="M94.4869 7.6228H91.4202V6.8528C91.4053 5.62377 92.1496 5.14993 93.415 5.13512C93.6383 5.14993 94.0998 5.16474 94.7846 5.22397V1.52207C93.9212 1.35919 93.0428 1.25553 91.8965 1.25553C88.5321 1.25553 86.3884 3.09167 86.3884 6.73434V7.6228H84.1852V11.2951H86.3884V23.7038H91.4202V11.2951H94.4869V7.6228Z" fill="#3208F5"/>
<path d="M100.741 2.26245H95.7088V23.7038H100.741V2.26245Z" fill="#3208F5"/>
<path d="M102.737 23.7038H107.768V7.6228H102.737V23.7038ZM102.677 3.29898C102.677 4.63166 103.838 5.69781 105.267 5.69781C106.711 5.69781 107.872 4.63166 107.887 3.29898C107.872 1.9663 106.711 0.885343 105.267 0.90015C103.838 0.885343 102.677 1.9663 102.677 3.29898Z" fill="#3208F5"/>
<path d="M114.022 7.6228H108.931L113.426 15.6485L108.692 23.7038H113.814L116.761 18.3139L119.768 23.7038H124.8L120.096 15.6485L124.651 7.6228H119.56L116.761 12.9831L114.022 7.6228Z" fill="#3208F5"/>
</svg>
