<svg width="333" height="64" viewBox="0 0 333 64" fill="none" xmlns="http://www.w3.org/2000/svg">
<path d="M13.913 0H0V13.9131H13.913V0Z" fill="#3208F5"/>
<path d="M64 0H50.087V13.9131H64V0Z" fill="#3208F5"/>
<path d="M13.846 20.9498L0 21.913V64H13.913V45.4412C24.6609 52.3934 39.3391 52.3934 50.087 45.4412V64H64V21.913L50.154 20.9498C47.2101 42.0065 16.7899 42.0065 13.846 20.9498Z" fill="#3208F5"/>
<path d="M88.8752 64C102.373 64 110.55 55.1154 110.55 41.8873C110.55 28.6592 102.373 19.7746 88.8752 19.7746C75.4175 19.7746 67.2 28.6592 67.2 41.8873C67.2 55.1154 75.4175 64 88.8752 64ZM80.8562 41.8083C80.8165 34.6612 83.6748 29.6859 88.9546 29.6464C94.0757 29.6859 96.9339 34.6612 96.8942 41.8083C96.9339 48.995 94.0757 53.9308 88.9546 53.9703C83.6748 53.9308 80.8165 48.995 80.8562 41.8083Z" fill="#3208F5"/>
<path d="M114.206 63.2103H127.624V37.7807C127.584 33.3976 130.204 30.5941 133.896 30.5941C137.509 30.5941 139.93 33.1212 139.93 37.1489V63.2103H152.792V37.4648C152.792 33.3187 155.135 30.5941 158.985 30.5941C162.598 30.5941 165.139 32.9238 165.099 37.3068V63.2103H178.517V34.3058C178.517 25.2238 172.88 19.7746 164.781 19.7746C158.43 19.7746 153.428 23.0521 151.76 28.1459H151.284C150.133 23.0126 145.567 19.7746 139.613 19.7746C133.698 19.7746 129.212 22.9336 127.386 28.1459H126.909V20.3275H114.206V63.2103Z" fill="#3208F5"/>
<path d="M203.768 64C214.923 64 222.307 58.6298 223.935 50.2586H211.47C210.398 52.7857 207.659 54.3652 204.006 54.3652C198.568 54.3652 195.233 50.7719 195.193 45.2832V45.0463H224.094V41.6504C224.094 27.4351 215.4 19.7746 203.292 19.7746C190.35 19.7746 182.014 28.6592 182.014 41.9663C182.014 55.6288 190.271 64 203.768 64ZM195.193 37.2279C195.392 32.8053 198.885 29.4095 203.609 29.4095C208.214 29.4095 211.549 32.6474 211.628 37.2279H195.193Z" fill="#3208F5"/>
<path d="M251.965 20.3275H243.787V18.2741C243.747 14.9967 245.732 13.7331 249.107 13.6937C249.702 13.7331 250.933 13.7726 252.759 13.9306V4.05885C250.456 3.6245 248.114 3.34809 245.057 3.34809C236.086 3.34809 230.369 8.24447 230.369 17.9583V20.3275H224.494V30.1202H230.369V63.2103H243.787V30.1202H251.965V20.3275Z" fill="#3208F5"/>
<path d="M268.641 6.0332H255.223V63.2103H268.641V6.0332Z" fill="#3208F5"/>
<path d="M273.964 63.2103H287.382V20.3275H273.964V63.2103ZM273.805 8.79728C273.805 12.3511 276.902 15.1942 280.713 15.1942C284.564 15.1942 287.66 12.3511 287.7 8.79728C287.66 5.24346 284.564 2.36091 280.713 2.4004C276.902 2.36091 273.805 5.24346 273.805 8.79728Z" fill="#3208F5"/>
<path d="M304.058 20.3275H290.482L302.471 41.7294L289.847 63.2103H303.503L311.363 48.837L319.382 63.2103H332.8L320.255 41.7294L332.403 20.3275H318.826L311.363 34.6217L304.058 20.3275Z" fill="#3208F5"/>
</svg>
